<?xml version="1.0" standalone="no"?>
<!DOCTYPE svg PUBLIC "-//W3C//DTD SVG 1.1//EN" "http://www.w3.org/Graphics/SVG/1.1/DTD/svg11.dtd">
<svg width="1080px" height="2570px" version="1.1" xmlns="http://www.w3.org/2000/svg">

<!-- This file is a systemd-analyze SVG file. It is best rendered in a   -->
<!-- browser such as Chrome, Chromium or Firefox. Other applications     -->
<!-- that render these files properly but much slower are ImageMagick,   -->
<!-- gimp, inkscape, etc. To display the files on your system, just      -->
<!-- point your browser to this file.                                    -->

<!-- This plot was generated by systemd-analyze version 232              -->

<defs>
  <style type="text/css">
    <![CDATA[
      rect       { stroke-width: 1; stroke-opacity: 0; }
      rect.background   { fill: rgb(255,255,255); }
      rect.activating   { fill: rgb(255,0,0); fill-opacity: 0.7; }
      rect.active       { fill: rgb(200,150,150); fill-opacity: 0.7; }
      rect.deactivating { fill: rgb(150,100,100); fill-opacity: 0.7; }
      rect.kernel       { fill: rgb(150,150,150); fill-opacity: 0.7; }
      rect.initrd       { fill: rgb(150,150,150); fill-opacity: 0.7; }
      rect.firmware     { fill: rgb(150,150,150); fill-opacity: 0.7; }
      rect.loader       { fill: rgb(150,150,150); fill-opacity: 0.7; }
      rect.userspace    { fill: rgb(150,150,150); fill-opacity: 0.7; }
      rect.security     { fill: rgb(144,238,144); fill-opacity: 0.7; }
      rect.generators   { fill: rgb(102,204,255); fill-opacity: 0.7; }
      rect.unitsload    { fill: rgb( 82,184,255); fill-opacity: 0.7; }
      rect.box   { fill: rgb(240,240,240); stroke: rgb(192,192,192); }
      line       { stroke: rgb(64,64,64); stroke-width: 1; }
//    line.sec1  { }
      line.sec5  { stroke-width: 2; }
      line.sec01 { stroke: rgb(224,224,224); stroke-width: 1; }
      text       { font-family: Verdana, Helvetica; font-size: 14px; }
      text.left  { font-family: Verdana, Helvetica; font-size: 14px; text-anchor: start; }
      text.right { font-family: Verdana, Helvetica; font-size: 14px; text-anchor: end; }
      text.sec   { font-size: 10px; }
    ]]>
   </style>
</defs>

<rect class="background" width="100%" height="100%" />
<text x="20" y="50">Startup finished in 4.999s (firmware) + 25ms (loader) + 3.568s (kernel) + 805ms (userspace) = 9.399s</text><text x="20" y="30">Arch Linux alphakevin (Linux 4.9.6-1-ARCH #1 SMP PREEMPT Thu Jan 26 09:22:26 CET 2017) x86-64 </text><g transform="translate(522.499,100)">
<rect class="box" x="0" y="0" width="939.930" height="2320.000" />
  <line class="sec5" x1="-500.000" y1="0" x2="-500.000" y2="2320.000" />
  <text class="sec" x="-500.000" y="-5.000" >-5.0s</text>
  <line class="sec01" x1="-490.000" y1="0" x2="-490.000" y2="2320.000" />
  <line class="sec01" x1="-480.000" y1="0" x2="-480.000" y2="2320.000" />
  <line class="sec01" x1="-470.000" y1="0" x2="-470.000" y2="2320.000" />
  <line class="sec01" x1="-460.000" y1="0" x2="-460.000" y2="2320.000" />
  <line class="sec01" x1="-450.000" y1="0" x2="-450.000" y2="2320.000" />
  <line class="sec01" x1="-440.000" y1="0" x2="-440.000" y2="2320.000" />
  <line class="sec01" x1="-430.000" y1="0" x2="-430.000" y2="2320.000" />
  <line class="sec01" x1="-420.000" y1="0" x2="-420.000" y2="2320.000" />
  <line class="sec01" x1="-410.000" y1="0" x2="-410.000" y2="2320.000" />
  <line class="sec1" x1="-400.000" y1="0" x2="-400.000" y2="2320.000" />
  <text class="sec" x="-400.000" y="-5.000" >-4.0s</text>
  <line class="sec01" x1="-390.000" y1="0" x2="-390.000" y2="2320.000" />
  <line class="sec01" x1="-380.000" y1="0" x2="-380.000" y2="2320.000" />
  <line class="sec01" x1="-370.000" y1="0" x2="-370.000" y2="2320.000" />
  <line class="sec01" x1="-360.000" y1="0" x2="-360.000" y2="2320.000" />
  <line class="sec01" x1="-350.000" y1="0" x2="-350.000" y2="2320.000" />
  <line class="sec01" x1="-340.000" y1="0" x2="-340.000" y2="2320.000" />
  <line class="sec01" x1="-330.000" y1="0" x2="-330.000" y2="2320.000" />
  <line class="sec01" x1="-320.000" y1="0" x2="-320.000" y2="2320.000" />
  <line class="sec01" x1="-310.000" y1="0" x2="-310.000" y2="2320.000" />
  <line class="sec1" x1="-300.000" y1="0" x2="-300.000" y2="2320.000" />
  <text class="sec" x="-300.000" y="-5.000" >-3.0s</text>
  <line class="sec01" x1="-290.000" y1="0" x2="-290.000" y2="2320.000" />
  <line class="sec01" x1="-280.000" y1="0" x2="-280.000" y2="2320.000" />
  <line class="sec01" x1="-270.000" y1="0" x2="-270.000" y2="2320.000" />
  <line class="sec01" x1="-260.000" y1="0" x2="-260.000" y2="2320.000" />
  <line class="sec01" x1="-250.000" y1="0" x2="-250.000" y2="2320.000" />
  <line class="sec01" x1="-240.000" y1="0" x2="-240.000" y2="2320.000" />
  <line class="sec01" x1="-230.000" y1="0" x2="-230.000" y2="2320.000" />
  <line class="sec01" x1="-220.000" y1="0" x2="-220.000" y2="2320.000" />
  <line class="sec01" x1="-210.000" y1="0" x2="-210.000" y2="2320.000" />
  <line class="sec1" x1="-200.000" y1="0" x2="-200.000" y2="2320.000" />
  <text class="sec" x="-200.000" y="-5.000" >-2.0s</text>
  <line class="sec01" x1="-190.000" y1="0" x2="-190.000" y2="2320.000" />
  <line class="sec01" x1="-180.000" y1="0" x2="-180.000" y2="2320.000" />
  <line class="sec01" x1="-170.000" y1="0" x2="-170.000" y2="2320.000" />
  <line class="sec01" x1="-160.000" y1="0" x2="-160.000" y2="2320.000" />
  <line class="sec01" x1="-150.000" y1="0" x2="-150.000" y2="2320.000" />
  <line class="sec01" x1="-140.000" y1="0" x2="-140.000" y2="2320.000" />
  <line class="sec01" x1="-130.000" y1="0" x2="-130.000" y2="2320.000" />
  <line class="sec01" x1="-120.000" y1="0" x2="-120.000" y2="2320.000" />
  <line class="sec01" x1="-110.000" y1="0" x2="-110.000" y2="2320.000" />
  <line class="sec1" x1="-100.000" y1="0" x2="-100.000" y2="2320.000" />
  <text class="sec" x="-100.000" y="-5.000" >-1.0s</text>
  <line class="sec01" x1="-90.000" y1="0" x2="-90.000" y2="2320.000" />
  <line class="sec01" x1="-80.000" y1="0" x2="-80.000" y2="2320.000" />
  <line class="sec01" x1="-70.000" y1="0" x2="-70.000" y2="2320.000" />
  <line class="sec01" x1="-60.000" y1="0" x2="-60.000" y2="2320.000" />
  <line class="sec01" x1="-50.000" y1="0" x2="-50.000" y2="2320.000" />
  <line class="sec01" x1="-40.000" y1="0" x2="-40.000" y2="2320.000" />
  <line class="sec01" x1="-30.000" y1="0" x2="-30.000" y2="2320.000" />
  <line class="sec01" x1="-20.000" y1="0" x2="-20.000" y2="2320.000" />
  <line class="sec01" x1="-10.000" y1="0" x2="-10.000" y2="2320.000" />
  <line class="sec5" x1="0.000" y1="0" x2="0.000" y2="2320.000" />
  <text class="sec" x="0.000" y="-5.000" >0.0s</text>
  <line class="sec01" x1="10.000" y1="0" x2="10.000" y2="2320.000" />
  <line class="sec01" x1="20.000" y1="0" x2="20.000" y2="2320.000" />
  <line class="sec01" x1="30.000" y1="0" x2="30.000" y2="2320.000" />
  <line class="sec01" x1="40.000" y1="0" x2="40.000" y2="2320.000" />
  <line class="sec01" x1="50.000" y1="0" x2="50.000" y2="2320.000" />
  <line class="sec01" x1="60.000" y1="0" x2="60.000" y2="2320.000" />
  <line class="sec01" x1="70.000" y1="0" x2="70.000" y2="2320.000" />
  <line class="sec01" x1="80.000" y1="0" x2="80.000" y2="2320.000" />
  <line class="sec01" x1="90.000" y1="0" x2="90.000" y2="2320.000" />
  <line class="sec1" x1="100.000" y1="0" x2="100.000" y2="2320.000" />
  <text class="sec" x="100.000" y="-5.000" >1.0s</text>
  <line class="sec01" x1="110.000" y1="0" x2="110.000" y2="2320.000" />
  <line class="sec01" x1="120.000" y1="0" x2="120.000" y2="2320.000" />
  <line class="sec01" x1="130.000" y1="0" x2="130.000" y2="2320.000" />
  <line class="sec01" x1="140.000" y1="0" x2="140.000" y2="2320.000" />
  <line class="sec01" x1="150.000" y1="0" x2="150.000" y2="2320.000" />
  <line class="sec01" x1="160.000" y1="0" x2="160.000" y2="2320.000" />
  <line class="sec01" x1="170.000" y1="0" x2="170.000" y2="2320.000" />
  <line class="sec01" x1="180.000" y1="0" x2="180.000" y2="2320.000" />
  <line class="sec01" x1="190.000" y1="0" x2="190.000" y2="2320.000" />
  <line class="sec1" x1="200.000" y1="0" x2="200.000" y2="2320.000" />
  <text class="sec" x="200.000" y="-5.000" >2.0s</text>
  <line class="sec01" x1="210.000" y1="0" x2="210.000" y2="2320.000" />
  <line class="sec01" x1="220.000" y1="0" x2="220.000" y2="2320.000" />
  <line class="sec01" x1="230.000" y1="0" x2="230.000" y2="2320.000" />
  <line class="sec01" x1="240.000" y1="0" x2="240.000" y2="2320.000" />
  <line class="sec01" x1="250.000" y1="0" x2="250.000" y2="2320.000" />
  <line class="sec01" x1="260.000" y1="0" x2="260.000" y2="2320.000" />
  <line class="sec01" x1="270.000" y1="0" x2="270.000" y2="2320.000" />
  <line class="sec01" x1="280.000" y1="0" x2="280.000" y2="2320.000" />
  <line class="sec01" x1="290.000" y1="0" x2="290.000" y2="2320.000" />
  <line class="sec1" x1="300.000" y1="0" x2="300.000" y2="2320.000" />
  <text class="sec" x="300.000" y="-5.000" >3.0s</text>
  <line class="sec01" x1="310.000" y1="0" x2="310.000" y2="2320.000" />
  <line class="sec01" x1="320.000" y1="0" x2="320.000" y2="2320.000" />
  <line class="sec01" x1="330.000" y1="0" x2="330.000" y2="2320.000" />
  <line class="sec01" x1="340.000" y1="0" x2="340.000" y2="2320.000" />
  <line class="sec01" x1="350.000" y1="0" x2="350.000" y2="2320.000" />
  <line class="sec01" x1="360.000" y1="0" x2="360.000" y2="2320.000" />
  <line class="sec01" x1="370.000" y1="0" x2="370.000" y2="2320.000" />
  <line class="sec01" x1="380.000" y1="0" x2="380.000" y2="2320.000" />
  <line class="sec01" x1="390.000" y1="0" x2="390.000" y2="2320.000" />
  <line class="sec1" x1="400.000" y1="0" x2="400.000" y2="2320.000" />
  <text class="sec" x="400.000" y="-5.000" >4.0s</text>
  <line class="sec01" x1="410.000" y1="0" x2="410.000" y2="2320.000" />
  <line class="sec01" x1="420.000" y1="0" x2="420.000" y2="2320.000" />
  <line class="sec01" x1="430.000" y1="0" x2="430.000" y2="2320.000" />
  <rect class="firmware" x="-502.499" y="0.000" width="499.947" height="19.000" />
  <text class="left" x="-497.499" y="14.000">firmware</text>
  <rect class="loader" x="-2.551" y="20.000" width="2.551" height="19.000" />
  <text class="left" x="2.449" y="34.000">loader</text>
  <rect class="kernel" x="0.000" y="40.000" width="356.867" height="19.000" />
  <text class="left" x="5.000" y="54.000">kernel</text>
  <rect class="active" x="356.867" y="60.000" width="80.564" height="19.000" />
  <rect class="security" x="357.093" y="60.000" width="0.021" height="19.000" />
  <rect class="generators" x="364.579" y="60.000" width="0.827" height="19.000" />
  <rect class="unitsload" x="365.503" y="60.000" width="1.446" height="19.000" />
  <text class="left" x="361.867" y="74.000">systemd</text>
  <rect class="activating" x="366.953" y="80.000" width="0.000" height="19.000" />
  <rect class="active" x="366.953" y="80.000" width="70.478" height="19.000" />
  <rect class="deactivating" x="437.431" y="80.000" width="0.000" height="19.000" />
  <text class="left" x="371.953" y="94.000">init.scope</text>
  <rect class="activating" x="366.953" y="100.000" width="0.000" height="19.000" />
  <rect class="active" x="366.953" y="100.000" width="70.478" height="19.000" />
  <rect class="deactivating" x="437.431" y="100.000" width="0.000" height="19.000" />
  <text class="left" x="371.953" y="114.000">-.slice</text>
  <rect class="activating" x="366.953" y="120.000" width="12.893" height="19.000" />
  <rect class="active" x="379.846" y="120.000" width="57.585" height="19.000" />
  <rect class="deactivating" x="437.431" y="120.000" width="0.000" height="19.000" />
  <text class="left" x="371.953" y="134.000">dev-nvme0n1p3.device (128ms)</text>
  <rect class="activating" x="366.954" y="140.000" width="0.000" height="19.000" />
  <rect class="active" x="366.954" y="140.000" width="70.477" height="19.000" />
  <rect class="deactivating" x="437.431" y="140.000" width="0.000" height="19.000" />
  <text class="left" x="371.954" y="154.000">-.mount</text>
  <rect class="activating" x="367.561" y="160.000" width="0.000" height="19.000" />
  <rect class="active" x="367.561" y="160.000" width="69.870" height="19.000" />
  <rect class="deactivating" x="437.431" y="160.000" width="0.000" height="19.000" />
  <text class="left" x="372.561" y="174.000">systemd-journald-dev-log.socket</text>
  <rect class="activating" x="367.566" y="180.000" width="0.000" height="19.000" />
  <rect class="active" x="367.566" y="180.000" width="69.865" height="19.000" />
  <rect class="deactivating" x="437.431" y="180.000" width="0.000" height="19.000" />
  <text class="left" x="372.566" y="194.000">systemd-udevd-control.socket</text>
  <rect class="activating" x="367.580" y="200.000" width="0.000" height="19.000" />
  <rect class="active" x="367.580" y="200.000" width="69.851" height="19.000" />
  <rect class="deactivating" x="437.431" y="200.000" width="0.000" height="19.000" />
  <text class="left" x="372.580" y="214.000">proc-sys-fs-binfmt_misc.automount</text>
  <rect class="activating" x="367.582" y="220.000" width="0.000" height="19.000" />
  <rect class="active" x="367.582" y="220.000" width="69.849" height="19.000" />
  <rect class="deactivating" x="437.431" y="220.000" width="0.000" height="19.000" />
  <text class="left" x="372.582" y="234.000">lvm2-lvmetad.socket</text>
  <rect class="activating" x="367.622" y="240.000" width="0.000" height="19.000" />
  <rect class="active" x="367.622" y="240.000" width="69.809" height="19.000" />
  <rect class="deactivating" x="437.431" y="240.000" width="0.000" height="19.000" />
  <text class="left" x="372.622" y="254.000">systemd-coredump.socket</text>
  <rect class="activating" x="367.624" y="260.000" width="0.000" height="19.000" />
  <rect class="active" x="367.624" y="260.000" width="69.807" height="19.000" />
  <rect class="deactivating" x="437.431" y="260.000" width="0.000" height="19.000" />
  <text class="left" x="372.624" y="274.000">systemd-udevd-kernel.socket</text>
  <rect class="activating" x="367.627" y="280.000" width="0.000" height="19.000" />
  <rect class="active" x="367.627" y="280.000" width="69.804" height="19.000" />
  <rect class="deactivating" x="437.431" y="280.000" width="0.000" height="19.000" />
  <text class="left" x="372.627" y="294.000">systemd-ask-password-wall.path</text>
  <rect class="activating" x="367.629" y="300.000" width="0.000" height="19.000" />
  <rect class="active" x="367.629" y="300.000" width="69.802" height="19.000" />
  <rect class="deactivating" x="437.431" y="300.000" width="0.000" height="19.000" />
  <text class="left" x="372.629" y="314.000">systemd-initctl.socket</text>
  <rect class="activating" x="367.630" y="320.000" width="0.000" height="19.000" />
  <rect class="active" x="367.630" y="320.000" width="69.801" height="19.000" />
  <rect class="deactivating" x="437.431" y="320.000" width="0.000" height="19.000" />
  <text class="left" x="372.630" y="334.000">swap.target</text>
  <rect class="activating" x="367.632" y="340.000" width="0.000" height="19.000" />
  <rect class="active" x="367.632" y="340.000" width="69.799" height="19.000" />
  <rect class="deactivating" x="437.431" y="340.000" width="0.000" height="19.000" />
  <text class="left" x="372.632" y="354.000">systemd-journald.socket</text>
  <rect class="activating" x="367.632" y="360.000" width="0.000" height="19.000" />
  <rect class="active" x="367.632" y="360.000" width="69.798" height="19.000" />
  <rect class="deactivating" x="437.431" y="360.000" width="0.000" height="19.000" />
  <text class="left" x="372.632" y="374.000">remote-fs.target</text>
  <rect class="activating" x="367.849" y="380.000" width="0.000" height="19.000" />
  <rect class="active" x="367.849" y="380.000" width="69.582" height="19.000" />
  <rect class="deactivating" x="437.431" y="380.000" width="0.000" height="19.000" />
  <text class="left" x="372.849" y="394.000">system.slice</text>
  <rect class="activating" x="367.862" y="400.000" width="0.000" height="19.000" />
  <rect class="active" x="367.862" y="400.000" width="69.569" height="19.000" />
  <rect class="deactivating" x="437.431" y="400.000" width="0.000" height="19.000" />
  <text class="left" x="372.862" y="414.000">system-getty.slice</text>
  <rect class="activating" x="367.869" y="420.000" width="0.000" height="19.000" />
  <rect class="active" x="367.869" y="420.000" width="69.562" height="19.000" />
  <rect class="deactivating" x="437.431" y="420.000" width="0.000" height="19.000" />
  <text class="left" x="372.869" y="434.000">system-netctl\x2dauto.slice</text>
  <rect class="activating" x="367.912" y="440.000" width="0.735" height="19.000" />
  <rect class="active" x="368.647" y="440.000" width="68.784" height="19.000" />
  <rect class="deactivating" x="437.431" y="440.000" width="0.000" height="19.000" />
  <text class="left" x="372.912" y="454.000">kmod-static-nodes.service (7ms)</text>
  <rect class="activating" x="367.973" y="460.000" width="0.958" height="19.000" />
  <rect class="active" x="368.932" y="460.000" width="68.499" height="19.000" />
  <rect class="deactivating" x="437.431" y="460.000" width="0.000" height="19.000" />
  <text class="left" x="372.973" y="474.000">dev-hugepages.mount (9ms)</text>
  <rect class="activating" x="368.022" y="480.000" width="0.649" height="19.000" />
  <rect class="active" x="368.671" y="480.000" width="68.760" height="19.000" />
  <rect class="deactivating" x="437.431" y="480.000" width="0.000" height="19.000" />
  <text class="left" x="373.022" y="494.000">systemd-sysctl.service (6ms)</text>
  <rect class="activating" x="368.065" y="500.000" width="0.654" height="19.000" />
  <rect class="active" x="368.719" y="500.000" width="68.712" height="19.000" />
  <rect class="deactivating" x="437.431" y="500.000" width="0.000" height="19.000" />
  <text class="left" x="373.065" y="514.000">sys-kernel-config.mount (6ms)</text>
  <rect class="activating" x="368.139" y="520.000" width="4.904" height="19.000" />
  <rect class="active" x="373.043" y="520.000" width="64.388" height="19.000" />
  <rect class="deactivating" x="437.431" y="520.000" width="0.000" height="19.000" />
  <text class="left" x="373.139" y="534.000">systemd-journald.service (49ms)</text>
  <rect class="activating" x="368.270" y="540.000" width="0.446" height="19.000" />
  <rect class="active" x="368.716" y="540.000" width="68.715" height="19.000" />
  <rect class="deactivating" x="437.431" y="540.000" width="0.000" height="19.000" />
  <text class="left" x="373.270" y="554.000">tmp.mount (4ms)</text>
  <rect class="activating" x="368.281" y="560.000" width="0.000" height="19.000" />
  <rect class="active" x="368.281" y="560.000" width="69.149" height="19.000" />
  <rect class="deactivating" x="437.431" y="560.000" width="0.000" height="19.000" />
  <text class="left" x="373.281" y="574.000">user.slice</text>
  <rect class="activating" x="368.283" y="580.000" width="0.000" height="19.000" />
  <rect class="active" x="368.283" y="580.000" width="69.148" height="19.000" />
  <rect class="deactivating" x="437.431" y="580.000" width="0.000" height="19.000" />
  <text class="left" x="373.283" y="594.000">slices.target</text>
  <rect class="activating" x="368.320" y="600.000" width="0.927" height="19.000" />
  <rect class="active" x="369.247" y="600.000" width="68.184" height="19.000" />
  <rect class="deactivating" x="437.431" y="600.000" width="0.000" height="19.000" />
  <text class="left" x="373.320" y="614.000">systemd-remount-fs.service (9ms)</text>
  <rect class="activating" x="368.323" y="620.000" width="0.000" height="19.000" />
  <rect class="active" x="368.323" y="620.000" width="69.108" height="19.000" />
  <rect class="deactivating" x="437.431" y="620.000" width="0.000" height="19.000" />
  <text class="left" x="373.323" y="634.000">getty.target</text>
  <rect class="activating" x="368.374" y="640.000" width="0.561" height="19.000" />
  <rect class="active" x="368.935" y="640.000" width="68.495" height="19.000" />
  <rect class="deactivating" x="437.431" y="640.000" width="0.000" height="19.000" />
  <text class="left" x="373.374" y="654.000">dev-mqueue.mount (5ms)</text>
  <rect class="activating" x="368.429" y="660.000" width="0.291" height="19.000" />
  <rect class="active" x="368.720" y="660.000" width="68.711" height="19.000" />
  <rect class="deactivating" x="437.431" y="660.000" width="0.000" height="19.000" />
  <text class="left" x="373.429" y="674.000">sys-kernel-debug.mount (2ms)</text>
  <rect class="activating" x="368.438" y="680.000" width="0.000" height="19.000" />
  <rect class="active" x="368.438" y="680.000" width="68.993" height="19.000" />
  <rect class="deactivating" x="437.431" y="680.000" width="0.000" height="19.000" />
  <text class="left" x="373.438" y="694.000">systemd-ask-password-console.path</text>
  <rect class="activating" x="368.440" y="700.000" width="0.000" height="19.000" />
  <rect class="active" x="368.440" y="700.000" width="68.991" height="19.000" />
  <rect class="deactivating" x="437.431" y="700.000" width="0.000" height="19.000" />
  <text class="left" x="373.440" y="714.000">cryptsetup.target</text>
  <rect class="activating" x="368.445" y="720.000" width="0.000" height="19.000" />
  <rect class="active" x="368.445" y="720.000" width="68.986" height="19.000" />
  <rect class="deactivating" x="437.431" y="720.000" width="0.000" height="19.000" />
  <text class="left" x="373.445" y="734.000">dm-event.socket</text>
  <rect class="activating" x="369.736" y="740.000" width="2.564" height="19.000" />
  <rect class="active" x="372.300" y="740.000" width="65.131" height="19.000" />
  <rect class="deactivating" x="437.431" y="740.000" width="0.000" height="19.000" />
  <text class="left" x="374.736" y="754.000">systemd-udev-trigger.service (25ms)</text>
  <rect class="activating" x="369.781" y="760.000" width="0.482" height="19.000" />
  <rect class="active" x="370.262" y="760.000" width="67.169" height="19.000" />
  <rect class="deactivating" x="437.431" y="760.000" width="0.000" height="19.000" />
  <text class="left" x="374.781" y="774.000">systemd-random-seed.service (4ms)</text>
  <rect class="activating" x="369.835" y="780.000" width="1.184" height="19.000" />
  <rect class="active" x="371.018" y="780.000" width="66.413" height="19.000" />
  <rect class="deactivating" x="437.431" y="780.000" width="0.000" height="19.000" />
  <text class="left" x="374.835" y="794.000">systemd-tmpfiles-setup-dev.service (11ms)</text>
  <rect class="activating" x="371.028" y="800.000" width="0.000" height="19.000" />
  <rect class="active" x="371.028" y="800.000" width="66.403" height="19.000" />
  <rect class="deactivating" x="437.431" y="800.000" width="0.000" height="19.000" />
  <text class="left" x="376.028" y="814.000">local-fs-pre.target</text>
  <rect class="activating" x="371.079" y="820.000" width="2.615" height="19.000" />
  <rect class="active" x="373.694" y="820.000" width="63.737" height="19.000" />
  <rect class="deactivating" x="437.431" y="820.000" width="0.000" height="19.000" />
  <text class="left" x="376.079" y="834.000">systemd-udevd.service (26ms)</text>
  <rect class="activating" x="373.093" y="840.000" width="0.560" height="19.000" />
  <rect class="active" x="373.653" y="840.000" width="63.778" height="19.000" />
  <rect class="deactivating" x="437.431" y="840.000" width="0.000" height="19.000" />
  <text class="left" x="378.093" y="854.000">systemd-journal-flush.service (5ms)</text>
  <rect class="activating" x="374.297" y="860.000" width="0.000" height="19.000" />
  <rect class="active" x="374.297" y="860.000" width="63.134" height="19.000" />
  <rect class="deactivating" x="437.431" y="860.000" width="0.000" height="19.000" />
  <text class="left" x="379.297" y="874.000">sys-module-configfs.device</text>
  <rect class="activating" x="377.379" y="880.000" width="0.000" height="19.000" />
  <rect class="active" x="377.379" y="880.000" width="60.051" height="19.000" />
  <rect class="deactivating" x="437.431" y="880.000" width="0.000" height="19.000" />
  <text class="left" x="382.379" y="894.000">sys-devices-pci0000:00-0000:00:02.0-drm-card0-card0\x2deDP\x2d1-intel_backlight.device</text>
  <rect class="activating" x="377.407" y="900.000" width="0.000" height="19.000" />
  <rect class="active" x="377.407" y="900.000" width="60.024" height="19.000" />
  <rect class="deactivating" x="437.431" y="900.000" width="0.000" height="19.000" />
  <text class="left" x="382.407" y="914.000">system-systemd\x2dbacklight.slice</text>
  <rect class="activating" x="377.471" y="920.000" width="0.313" height="19.000" />
  <rect class="active" x="377.784" y="920.000" width="59.647" height="19.000" />
  <rect class="deactivating" x="437.431" y="920.000" width="0.000" height="19.000" />
  <text class="left" x="382.471" y="934.000">systemd-backlight@backlight:intel_backlight.service (3ms)</text>
  <rect class="activating" x="379.275" y="940.000" width="0.000" height="19.000" />
  <rect class="active" x="379.275" y="940.000" width="58.155" height="19.000" />
  <rect class="deactivating" x="437.431" y="940.000" width="0.000" height="19.000" />
  <text class="left" x="384.275" y="954.000">dev-disk-by\x2dpath-pci\x2d0000:05:00.0\x2dnvme\x2d1.device</text>
  <rect class="activating" x="379.276" y="960.000" width="0.000" height="19.000" />
  <rect class="active" x="379.276" y="960.000" width="58.155" height="19.000" />
  <rect class="deactivating" x="437.431" y="960.000" width="0.000" height="19.000" />
  <text class="left" x="384.276" y="974.000">dev-disk-by\x2did-nvme\x2deui.00080d020010ec6c.device</text>
  <rect class="activating" x="379.276" y="980.000" width="0.000" height="19.000" />
  <rect class="active" x="379.276" y="980.000" width="58.155" height="19.000" />
  <rect class="deactivating" x="437.431" y="980.000" width="0.000" height="19.000" />
  <text class="left" x="384.276" y="994.000">dev-disk-by\x2did-nvme\x2dTHNSN5512GPU7.device</text>
  <rect class="activating" x="379.276" y="1000.000" width="0.000" height="19.000" />
  <rect class="active" x="379.276" y="1000.000" width="58.154" height="19.000" />
  <rect class="deactivating" x="437.431" y="1000.000" width="0.000" height="19.000" />
  <text class="left" x="384.276" y="1014.000">dev-X62S108YTV8V.device</text>
  <rect class="activating" x="379.277" y="1020.000" width="0.000" height="19.000" />
  <rect class="active" x="379.277" y="1020.000" width="58.154" height="19.000" />
  <rect class="deactivating" x="437.431" y="1020.000" width="0.000" height="19.000" />
  <text class="left" x="384.277" y="1034.000">dev-TOSHIBA_.device</text>
  <rect class="activating" x="379.277" y="1040.000" width="0.000" height="19.000" />
  <rect class="active" x="379.277" y="1040.000" width="58.154" height="19.000" />
  <rect class="deactivating" x="437.431" y="1040.000" width="0.000" height="19.000" />
  <text class="left" x="384.277" y="1054.000">dev-nvme0n1.device</text>
  <rect class="activating" x="379.277" y="1060.000" width="0.000" height="19.000" />
  <rect class="active" x="379.277" y="1060.000" width="58.154" height="19.000" />
  <rect class="deactivating" x="437.431" y="1060.000" width="0.000" height="19.000" />
  <text class="left" x="384.277" y="1074.000">sys-devices-pci0000:00-0000:00:1c.4-0000:05:00.0-nvme-nvme0-nvme0n1.device</text>
  <rect class="activating" x="379.843" y="1080.000" width="0.000" height="19.000" />
  <rect class="active" x="379.843" y="1080.000" width="57.588" height="19.000" />
  <rect class="deactivating" x="437.431" y="1080.000" width="0.000" height="19.000" />
  <text class="left" x="384.843" y="1094.000">dev-disk-by\x2duuid-9c55bbe4\x2d9b43\x2d4fa9\x2d9cb0\x2de7c35437d2d7.device</text>
  <rect class="activating" x="379.843" y="1100.000" width="0.000" height="19.000" />
  <rect class="active" x="379.843" y="1100.000" width="57.588" height="19.000" />
  <rect class="deactivating" x="437.431" y="1100.000" width="0.000" height="19.000" />
  <text class="left" x="384.843" y="1114.000">dev-disk-by\x2dpath-pci\x2d0000:05:00.0\x2dnvme\x2d1\x2dpart3.device</text>
  <rect class="activating" x="379.845" y="1120.000" width="0.000" height="19.000" />
  <rect class="active" x="379.845" y="1120.000" width="57.586" height="19.000" />
  <rect class="deactivating" x="437.431" y="1120.000" width="0.000" height="19.000" />
  <text class="left" x="384.845" y="1134.000">dev-disk-by\x2dpartuuid-0b9a403a\x2de81c\x2d478a\x2d8d2b\x2d83f19b506589.device</text>
  <rect class="activating" x="379.845" y="1140.000" width="0.000" height="19.000" />
  <rect class="active" x="379.845" y="1140.000" width="57.585" height="19.000" />
  <rect class="deactivating" x="437.431" y="1140.000" width="0.000" height="19.000" />
  <text class="left" x="384.845" y="1154.000">dev-disk-by\x2dpartlabel-arch\x2droot.device</text>
  <rect class="activating" x="379.846" y="1160.000" width="0.000" height="19.000" />
  <rect class="active" x="379.846" y="1160.000" width="57.585" height="19.000" />
  <rect class="deactivating" x="437.431" y="1160.000" width="0.000" height="19.000" />
  <text class="left" x="384.846" y="1174.000">dev-disk-by\x2did-nvme\x2deui.00080d020010ec6c\x2dpart3.device</text>
  <rect class="activating" x="379.846" y="1180.000" width="0.000" height="19.000" />
  <rect class="active" x="379.846" y="1180.000" width="57.585" height="19.000" />
  <rect class="deactivating" x="437.431" y="1180.000" width="0.000" height="19.000" />
  <text class="left" x="384.846" y="1194.000">dev-X62S108YTV8V\x2dpart3.device</text>
  <rect class="activating" x="379.846" y="1200.000" width="0.000" height="19.000" />
  <rect class="active" x="379.846" y="1200.000" width="57.585" height="19.000" />
  <rect class="deactivating" x="437.431" y="1200.000" width="0.000" height="19.000" />
  <text class="left" x="384.846" y="1214.000">sys-devices-pci0000:00-0000:00:1c.4-0000:05:00.0-nvme-nvme0-nvme0n1-nvme0n1p3.device</text>
  <rect class="activating" x="380.266" y="1220.000" width="0.000" height="19.000" />
  <rect class="active" x="380.266" y="1220.000" width="57.165" height="19.000" />
  <rect class="deactivating" x="437.431" y="1220.000" width="0.000" height="19.000" />
  <text class="left" x="385.266" y="1234.000">dev-disk-by\x2duuid-7881\x2dF265.device</text>
  <rect class="activating" x="380.267" y="1240.000" width="0.000" height="19.000" />
  <rect class="active" x="380.267" y="1240.000" width="57.164" height="19.000" />
  <rect class="deactivating" x="437.431" y="1240.000" width="0.000" height="19.000" />
  <text class="left" x="385.267" y="1254.000">dev-disk-by\x2dpath-pci\x2d0000:05:00.0\x2dnvme\x2d1\x2dpart1.device</text>
  <rect class="activating" x="380.267" y="1260.000" width="0.000" height="19.000" />
  <rect class="active" x="380.267" y="1260.000" width="57.164" height="19.000" />
  <rect class="deactivating" x="437.431" y="1260.000" width="0.000" height="19.000" />
  <text class="left" x="385.267" y="1274.000">dev-disk-by\x2dpartuuid-3bf1a600\x2d4229\x2d4811\x2d974d\x2dfa48c853e3e8.device</text>
  <rect class="activating" x="380.267" y="1280.000" width="0.000" height="19.000" />
  <rect class="active" x="380.267" y="1280.000" width="57.164" height="19.000" />
  <rect class="deactivating" x="437.431" y="1280.000" width="0.000" height="19.000" />
  <text class="left" x="385.267" y="1294.000">dev-disk-by\x2dpartlabel-EFI\x5cx20System.device</text>
  <rect class="activating" x="380.268" y="1300.000" width="0.000" height="19.000" />
  <rect class="active" x="380.268" y="1300.000" width="57.163" height="19.000" />
  <rect class="deactivating" x="437.431" y="1300.000" width="0.000" height="19.000" />
  <text class="left" x="385.268" y="1314.000">dev-disk-by\x2did-nvme\x2deui.00080d020010ec6c\x2dpart1.device</text>
  <rect class="activating" x="380.268" y="1320.000" width="0.000" height="19.000" />
  <rect class="active" x="380.268" y="1320.000" width="57.163" height="19.000" />
  <rect class="deactivating" x="437.431" y="1320.000" width="0.000" height="19.000" />
  <text class="left" x="385.268" y="1334.000">dev-X62S108YTV8V\x2dpart1.device</text>
  <rect class="activating" x="380.268" y="1340.000" width="0.000" height="19.000" />
  <rect class="active" x="380.268" y="1340.000" width="57.163" height="19.000" />
  <rect class="deactivating" x="437.431" y="1340.000" width="0.000" height="19.000" />
  <text class="left" x="385.268" y="1354.000">dev-nvme0n1p1.device</text>
  <rect class="activating" x="380.271" y="1360.000" width="0.000" height="19.000" />
  <rect class="active" x="380.271" y="1360.000" width="57.160" height="19.000" />
  <rect class="deactivating" x="437.431" y="1360.000" width="0.000" height="19.000" />
  <text class="left" x="385.271" y="1374.000">sys-devices-pci0000:00-0000:00:1c.4-0000:05:00.0-nvme-nvme0-nvme0n1-nvme0n1p1.device</text>
  <rect class="activating" x="380.295" y="1380.000" width="0.000" height="19.000" />
  <rect class="active" x="380.295" y="1380.000" width="57.136" height="19.000" />
  <rect class="deactivating" x="437.431" y="1380.000" width="0.000" height="19.000" />
  <text class="left" x="385.295" y="1394.000">dev-ttyS0.device</text>
  <rect class="activating" x="380.295" y="1400.000" width="0.000" height="19.000" />
  <rect class="active" x="380.295" y="1400.000" width="57.136" height="19.000" />
  <rect class="deactivating" x="437.431" y="1400.000" width="0.000" height="19.000" />
  <text class="left" x="385.295" y="1414.000">sys-devices-platform-serial8250-tty-ttyS0.device</text>
  <rect class="activating" x="380.318" y="1420.000" width="0.000" height="19.000" />
  <rect class="active" x="380.318" y="1420.000" width="57.113" height="19.000" />
  <rect class="deactivating" x="437.431" y="1420.000" width="0.000" height="19.000" />
  <text class="left" x="385.318" y="1434.000">dev-ttyS1.device</text>
  <rect class="activating" x="380.318" y="1440.000" width="0.000" height="19.000" />
  <rect class="active" x="380.318" y="1440.000" width="57.112" height="19.000" />
  <rect class="deactivating" x="437.431" y="1440.000" width="0.000" height="19.000" />
  <text class="left" x="385.318" y="1454.000">sys-devices-platform-serial8250-tty-ttyS1.device</text>
  <rect class="activating" x="380.453" y="1460.000" width="2.595" height="19.000" />
  <rect class="active" x="383.047" y="1460.000" width="54.384" height="19.000" />
  <rect class="deactivating" x="437.431" y="1460.000" width="0.000" height="19.000" />
  <text class="left" x="385.453" y="1474.000">boot.mount (25ms)</text>
  <rect class="activating" x="380.486" y="1480.000" width="0.000" height="19.000" />
  <rect class="active" x="380.486" y="1480.000" width="56.945" height="19.000" />
  <rect class="deactivating" x="437.431" y="1480.000" width="0.000" height="19.000" />
  <text class="left" x="385.486" y="1494.000">dev-ttyS2.device</text>
  <rect class="activating" x="380.486" y="1500.000" width="0.000" height="19.000" />
  <rect class="active" x="380.486" y="1500.000" width="56.945" height="19.000" />
  <rect class="deactivating" x="437.431" y="1500.000" width="0.000" height="19.000" />
  <text class="left" x="385.486" y="1514.000">sys-devices-platform-serial8250-tty-ttyS2.device</text>
  <rect class="activating" x="380.519" y="1520.000" width="0.000" height="19.000" />
  <rect class="active" x="380.519" y="1520.000" width="56.912" height="19.000" />
  <rect class="deactivating" x="437.431" y="1520.000" width="0.000" height="19.000" />
  <text class="left" x="385.519" y="1534.000">dev-ttyS3.device</text>
  <rect class="activating" x="380.520" y="1540.000" width="0.000" height="19.000" />
  <rect class="active" x="380.520" y="1540.000" width="56.911" height="19.000" />
  <rect class="deactivating" x="437.431" y="1540.000" width="0.000" height="19.000" />
  <text class="left" x="385.520" y="1554.000">sys-devices-platform-serial8250-tty-ttyS3.device</text>
  <rect class="activating" x="383.054" y="1560.000" width="0.000" height="19.000" />
  <rect class="active" x="383.054" y="1560.000" width="54.377" height="19.000" />
  <rect class="deactivating" x="437.431" y="1560.000" width="0.000" height="19.000" />
  <text class="left" x="388.054" y="1574.000">local-fs.target</text>
  <rect class="activating" x="383.110" y="1580.000" width="0.942" height="19.000" />
  <rect class="active" x="384.052" y="1580.000" width="53.379" height="19.000" />
  <rect class="deactivating" x="437.431" y="1580.000" width="0.000" height="19.000" />
  <text class="left" x="388.110" y="1594.000">systemd-tmpfiles-setup.service (9ms)</text>
  <rect class="activating" x="384.114" y="1600.000" width="0.759" height="19.000" />
  <rect class="active" x="384.873" y="1600.000" width="52.558" height="19.000" />
  <rect class="deactivating" x="437.431" y="1600.000" width="0.000" height="19.000" />
  <text class="left" x="389.114" y="1614.000">systemd-update-utmp.service (7ms)</text>
  <rect class="activating" x="384.884" y="1620.000" width="0.000" height="19.000" />
  <rect class="active" x="384.884" y="1620.000" width="52.547" height="19.000" />
  <rect class="deactivating" x="437.431" y="1620.000" width="0.000" height="19.000" />
  <text class="left" x="389.884" y="1634.000">sysinit.target</text>
  <rect class="activating" x="384.905" y="1640.000" width="0.000" height="19.000" />
  <rect class="active" x="384.905" y="1640.000" width="52.526" height="19.000" />
  <rect class="deactivating" x="437.431" y="1640.000" width="0.000" height="19.000" />
  <text class="left" x="389.905" y="1654.000">shadow.timer</text>
  <rect class="activating" x="384.911" y="1660.000" width="0.000" height="19.000" />
  <rect class="active" x="384.911" y="1660.000" width="52.520" height="19.000" />
  <rect class="deactivating" x="437.431" y="1660.000" width="0.000" height="19.000" />
  <text class="left" x="389.911" y="1674.000">dbus.socket</text>
  <rect class="activating" x="384.916" y="1680.000" width="0.000" height="19.000" />
  <rect class="active" x="384.916" y="1680.000" width="52.515" height="19.000" />
  <rect class="deactivating" x="437.431" y="1680.000" width="0.000" height="19.000" />
  <text class="left" x="389.916" y="1694.000">man-db.timer</text>
  <rect class="activating" x="384.918" y="1700.000" width="0.000" height="19.000" />
  <rect class="active" x="384.918" y="1700.000" width="52.513" height="19.000" />
  <rect class="deactivating" x="437.431" y="1700.000" width="0.000" height="19.000" />
  <text class="left" x="389.918" y="1714.000">systemd-tmpfiles-clean.timer</text>
  <rect class="activating" x="384.922" y="1720.000" width="0.000" height="19.000" />
  <rect class="active" x="384.922" y="1720.000" width="52.509" height="19.000" />
  <rect class="deactivating" x="437.431" y="1720.000" width="0.000" height="19.000" />
  <text class="left" x="389.922" y="1734.000">org.cups.cupsd.socket</text>
  <rect class="activating" x="384.925" y="1740.000" width="0.000" height="19.000" />
  <rect class="active" x="384.925" y="1740.000" width="52.506" height="19.000" />
  <rect class="deactivating" x="437.431" y="1740.000" width="0.000" height="19.000" />
  <text class="left" x="389.925" y="1754.000">avahi-daemon.socket</text>
  <rect class="activating" x="384.927" y="1760.000" width="0.000" height="19.000" />
  <rect class="active" x="384.927" y="1760.000" width="52.504" height="19.000" />
  <rect class="deactivating" x="437.431" y="1760.000" width="0.000" height="19.000" />
  <text class="left" x="389.927" y="1774.000">sockets.target</text>
  <rect class="activating" x="384.931" y="1780.000" width="0.000" height="19.000" />
  <rect class="active" x="384.931" y="1780.000" width="52.500" height="19.000" />
  <rect class="deactivating" x="437.431" y="1780.000" width="0.000" height="19.000" />
  <text class="left" x="389.931" y="1794.000">logrotate.timer</text>
  <rect class="activating" x="384.960" y="1800.000" width="0.000" height="19.000" />
  <rect class="active" x="384.960" y="1800.000" width="52.471" height="19.000" />
  <rect class="deactivating" x="437.431" y="1800.000" width="0.000" height="19.000" />
  <text class="left" x="389.960" y="1814.000">org.cups.cupsd.path</text>
  <rect class="activating" x="384.962" y="1820.000" width="0.000" height="19.000" />
  <rect class="active" x="384.962" y="1820.000" width="52.469" height="19.000" />
  <rect class="deactivating" x="437.431" y="1820.000" width="0.000" height="19.000" />
  <text class="left" x="389.962" y="1834.000">paths.target</text>
  <rect class="activating" x="384.964" y="1840.000" width="0.000" height="19.000" />
  <rect class="active" x="384.964" y="1840.000" width="52.467" height="19.000" />
  <rect class="deactivating" x="437.431" y="1840.000" width="0.000" height="19.000" />
  <text class="left" x="389.964" y="1854.000">basic.target</text>
  <rect class="activating" x="385.017" y="1860.000" width="0.000" height="19.000" />
  <rect class="active" x="385.017" y="1860.000" width="52.413" height="19.000" />
  <rect class="deactivating" x="437.431" y="1860.000" width="0.000" height="19.000" />
  <text class="left" x="390.017" y="1874.000">dbus.service</text>
  <rect class="activating" x="387.112" y="1880.000" width="0.738" height="19.000" />
  <rect class="active" x="387.849" y="1880.000" width="49.581" height="19.000" />
  <rect class="deactivating" x="437.431" y="1880.000" width="0.000" height="19.000" />
  <text class="left" x="392.112" y="1894.000">dhcpcd.service (7ms)</text>
  <rect class="activating" x="387.166" y="1900.000" width="1.202" height="19.000" />
  <rect class="active" x="388.367" y="1900.000" width="49.063" height="19.000" />
  <rect class="deactivating" x="437.431" y="1900.000" width="0.000" height="19.000" />
  <text class="left" x="392.166" y="1914.000">systemd-logind.service (12ms)</text>
  <rect class="activating" x="387.218" y="1920.000" width="0.000" height="19.000" />
  <rect class="active" x="387.218" y="1920.000" width="50.213" height="19.000" />
  <rect class="deactivating" x="437.431" y="1920.000" width="0.000" height="19.000" />
  <text class="left" x="392.218" y="1934.000">acpid.service</text>
  <rect class="activating" x="387.278" y="1940.000" width="0.888" height="19.000" />
  <rect class="active" x="388.165" y="1940.000" width="49.266" height="19.000" />
  <rect class="deactivating" x="437.431" y="1940.000" width="0.000" height="19.000" />
  <text class="left" x="392.278" y="1954.000">avahi-daemon.service (8ms)</text>
  <rect class="activating" x="387.325" y="1960.000" width="0.000" height="19.000" />
  <rect class="active" x="387.325" y="1960.000" width="50.106" height="19.000" />
  <rect class="deactivating" x="437.431" y="1960.000" width="0.000" height="19.000" />
  <text class="left" x="392.325" y="1974.000">updatedb.timer</text>
  <rect class="activating" x="387.329" y="1980.000" width="0.000" height="19.000" />
  <rect class="active" x="387.329" y="1980.000" width="50.102" height="19.000" />
  <rect class="deactivating" x="437.431" y="1980.000" width="0.000" height="19.000" />
  <text class="left" x="392.329" y="1994.000">timers.target</text>
  <rect class="activating" x="387.480" y="2000.000" width="0.000" height="19.000" />
  <rect class="active" x="387.480" y="2000.000" width="49.951" height="19.000" />
  <rect class="deactivating" x="437.431" y="2000.000" width="0.000" height="19.000" />
  <text class="left" x="392.480" y="2014.000">dev-rfkill.device</text>
  <rect class="activating" x="387.481" y="2020.000" width="0.000" height="19.000" />
  <rect class="active" x="387.481" y="2020.000" width="49.950" height="19.000" />
  <rect class="deactivating" x="437.431" y="2020.000" width="0.000" height="19.000" />
  <text class="left" x="392.481" y="2034.000">sys-devices-virtual-misc-rfkill.device</text>
  <rect class="activating" x="387.494" y="2040.000" width="0.000" height="19.000" />
  <rect class="active" x="387.494" y="2040.000" width="49.937" height="19.000" />
  <rect class="deactivating" x="437.431" y="2040.000" width="0.000" height="19.000" />
  <text class="left" x="392.494" y="2054.000">systemd-rfkill.socket</text>
  <rect class="activating" x="387.551" y="2060.000" width="2.485" height="19.000" />
  <rect class="active" x="390.037" y="2060.000" width="559.163" height="19.000" />
  <rect class="deactivating" x="949.199" y="2060.000" width="1844674407370443.500" height="19.000" />
  <text class="left" x="392.551" y="2074.000">systemd-rfkill.service (24ms)</text>
  <rect class="activating" x="389.775" y="2080.000" width="0.000" height="19.000" />
  <rect class="active" x="389.775" y="2080.000" width="47.655" height="19.000" />
  <rect class="deactivating" x="437.431" y="2080.000" width="0.000" height="19.000" />
  <text class="left" x="394.775" y="2094.000">sys-devices-platform-thinkpad_acpi-leds-tpacpi::kbd_backlight.device</text>
  <rect class="activating" x="389.839" y="2100.000" width="0.546" height="19.000" />
  <rect class="active" x="390.386" y="2100.000" width="47.045" height="19.000" />
  <rect class="deactivating" x="437.431" y="2100.000" width="0.000" height="19.000" />
  <text class="left" x="394.839" y="2114.000">systemd-backlight@leds:tpacpi::kbd_backlight.service (5ms)</text>
  <rect class="activating" x="403.004" y="2120.000" width="0.000" height="19.000" />
  <rect class="active" x="403.004" y="2120.000" width="34.427" height="19.000" />
  <rect class="deactivating" x="437.431" y="2120.000" width="0.000" height="19.000" />
  <text class="left" x="408.004" y="2134.000">sys-subsystem-net-devices-wlp4s0.device</text>
  <rect class="activating" x="403.019" y="2140.000" width="0.000" height="19.000" />
  <rect class="active" x="403.019" y="2140.000" width="34.412" height="19.000" />
  <rect class="deactivating" x="437.431" y="2140.000" width="0.000" height="19.000" />
  <text class="left" x="408.019" y="2154.000">sys-devices-pci0000:00-0000:00:1c.2-0000:04:00.0-net-wlp4s0.device</text>
  <rect class="activating" x="424.362" y="2160.000" width="0.000" height="19.000" />
  <rect class="active" x="424.362" y="2160.000" width="13.069" height="19.000" />
  <rect class="deactivating" x="437.431" y="2160.000" width="0.000" height="19.000" />
  <text class="left" x="429.362" y="2174.000">sys-devices-pci0000:00-0000:00:1f.3-sound-card0.device</text>
  <rect class="activating" x="424.368" y="2180.000" width="0.000" height="19.000" />
  <rect class="active" x="424.368" y="2180.000" width="13.063" height="19.000" />
  <rect class="deactivating" x="437.431" y="2180.000" width="0.000" height="19.000" />
  <text class="left" x="429.368" y="2194.000">sound.target</text>
  <rect class="activating" x="435.039" y="2200.000" width="0.000" height="19.000" />
  <rect class="active" x="435.039" y="2200.000" width="2.392" height="19.000" />
  <rect class="deactivating" x="437.431" y="2200.000" width="0.000" height="19.000" />
  <text class="left" x="440.039" y="2214.000">network.target</text>
  <rect class="activating" x="435.246" y="2220.000" width="2.105" height="19.000" />
  <rect class="active" x="437.351" y="2220.000" width="0.080" height="19.000" />
  <rect class="deactivating" x="437.431" y="2220.000" width="0.000" height="19.000" />
  <text class="left" x="440.246" y="2234.000">ntpd.service (21ms)</text>
  <rect class="activating" x="435.387" y="2240.000" width="0.648" height="19.000" />
  <rect class="active" x="436.035" y="2240.000" width="1.396" height="19.000" />
  <rect class="deactivating" x="437.431" y="2240.000" width="0.000" height="19.000" />
  <text class="left" x="440.387" y="2254.000">systemd-user-sessions.service (6ms)</text>
  <rect class="activating" x="436.236" y="2260.000" width="0.000" height="19.000" />
  <rect class="active" x="436.236" y="2260.000" width="1.195" height="19.000" />
  <rect class="deactivating" x="437.431" y="2260.000" width="0.000" height="19.000" />
  <text class="left" x="441.236" y="2274.000">sddm.service</text>
  <rect class="activating" x="437.415" y="2280.000" width="0.000" height="19.000" />
  <rect class="active" x="437.415" y="2280.000" width="0.016" height="19.000" />
  <rect class="deactivating" x="437.431" y="2280.000" width="0.000" height="19.000" />
  <text class="left" x="442.415" y="2294.000">multi-user.target</text>
  <rect class="activating" x="437.424" y="2300.000" width="0.000" height="19.000" />
  <rect class="active" x="437.424" y="2300.000" width="0.007" height="19.000" />
  <rect class="deactivating" x="437.431" y="2300.000" width="0.000" height="19.000" />
  <text class="left" x="442.424" y="2314.000">graphical.target</text>
</g>
<g transform="translate(20,100)">
  <rect class="activating" x="0.000" y="2340.000" width="30.000" height="19.000" />
  <text class="left" x="45.000" y="2354.000">Activating</text>
  <rect class="active" x="0.000" y="2360.000" width="30.000" height="19.000" />
  <text class="left" x="45.000" y="2374.000">Active</text>
  <rect class="deactivating" x="0.000" y="2380.000" width="30.000" height="19.000" />
  <text class="left" x="45.000" y="2394.000">Deactivating</text>
  <rect class="security" x="0.000" y="2400.000" width="30.000" height="19.000" />
  <text class="left" x="45.000" y="2414.000">Setting up security module</text>
  <rect class="generators" x="0.000" y="2420.000" width="30.000" height="19.000" />
  <text class="left" x="45.000" y="2434.000">Generators</text>
  <rect class="unitsload" x="0.000" y="2440.000" width="30.000" height="19.000" />
  <text class="left" x="45.000" y="2454.000">Loading unit files</text>
</g>

</svg>
